<?xml version="1.0" encoding="UTF-8"?>
<svg xmlns="http://www.w3.org/2000/svg" viewBox="-90.00 -56.00 188.00 188.00" width="512" height="512" shape-rendering="crispEdges" role="img" aria-label="Kabuqina app icon — voxel cup on a coaster">
<title>Kabuqina app icon — voxel cup on a coaster</title>
<polygon points="0.00,16.00 96.00,64.00 8.00,108.00 -88.00,60.00" fill="#F5EFFA" opacity="1" stroke="#3B2A22" stroke-width="0.7"/>
<polygon points="-88.00,60.00 8.00,108.00 8.00,116.00 -88.00,68.00" fill="#EAE1F1" opacity="1" stroke="#3B2A22" stroke-width="0.7"/>
<polygon points="8.00,108.00 96.00,64.00 96.00,72.00 8.00,116.00" fill="#D6C9E2" opacity="1" stroke="#3B2A22" stroke-width="0.7"/>
<polygon points="0.00,-32.00 64.00,0.00 0.00,32.00 -64.00,0.00" fill="#FFFCFA" opacity="1" stroke="#3B2A22" stroke-width="0.7"/>
<polygon points="-64.00,0.00 0.00,32.00 0.00,88.00 -64.00,56.00" fill="#F3EDE7" opacity="1" stroke="#3B2A22" stroke-width="0.7"/>
<polygon points="0.00,32.00 64.00,0.00 64.00,56.00 0.00,88.00" fill="#DDD0C6" opacity="1" stroke="#3B2A22" stroke-width="0.7"/>
<polygon points="0.00,-40.00 8.00,-36.00 -56.00,-4.00 -64.00,-8.00" fill="#FFFCFA" opacity="1" stroke="#3B2A22" stroke-width="0.7"/>
<polygon points="-64.00,-8.00 -56.00,-4.00 -56.00,4.00 -64.00,0.00" fill="#F3EDE7" opacity="1" stroke="#3B2A22" stroke-width="0.7"/>
<polygon points="-56.00,-4.00 8.00,-36.00 8.00,-28.00 -56.00,4.00" fill="#DDD0C6" opacity="1" stroke="#3B2A22" stroke-width="0.7"/>
<polygon points="8.00,-36.00 56.00,-12.00 48.00,-8.00 0.00,-32.00" fill="#FFFCFA" opacity="1" stroke="#3B2A22" stroke-width="0.7"/>
<polygon points="0.00,-32.00 48.00,-8.00 48.00,0.00 0.00,-24.00" fill="#F3EDE7" opacity="1" stroke="#3B2A22" stroke-width="0.7"/>
<polygon points="48.00,-8.00 56.00,-12.00 56.00,-4.00 48.00,0.00" fill="#DDD0C6" opacity="1" stroke="#3B2A22" stroke-width="0.7"/>
<polygon points="48.00,32.00 64.00,40.00 40.00,52.00 24.00,44.00" fill="#CDBEDD" opacity="1" stroke="#3B2A22" stroke-width="0.7"/>
<polygon points="24.00,44.00 40.00,52.00 40.00,60.00 24.00,52.00" fill="#B79FCD" opacity="1" stroke="#3B2A22" stroke-width="0.7"/>
<polygon points="40.00,52.00 64.00,40.00 64.00,48.00 40.00,60.00" fill="#8F75A8" opacity="1" stroke="#3B2A22" stroke-width="0.7"/>
<polygon points="0.00,-32.00 48.00,-8.00 0.00,16.00 -48.00,-8.00" fill="#E8CFA8" opacity="1" stroke="#3B2A22" stroke-width="0.7"/>
<polygon points="-48.00,-8.00 0.00,16.00 0.00,24.00 -48.00,0.00" fill="#D8B689" opacity="1" stroke="#3B2A22" stroke-width="0.7"/>
<polygon points="0.00,16.00 48.00,-8.00 48.00,0.00 0.00,24.00" fill="#B8926A" opacity="1" stroke="#3B2A22" stroke-width="0.7"/>
<polygon points="56.00,20.00 64.00,24.00 40.00,36.00 32.00,32.00" fill="#CDBEDD" opacity="1" stroke="#3B2A22" stroke-width="0.7"/>
<polygon points="32.00,32.00 40.00,36.00 40.00,52.00 32.00,48.00" fill="#B79FCD" opacity="1" stroke="#3B2A22" stroke-width="0.7"/>
<polygon points="40.00,36.00 64.00,24.00 64.00,40.00 40.00,52.00" fill="#8F75A8" opacity="1" stroke="#3B2A22" stroke-width="0.7"/>
<polygon points="48.00,8.00 64.00,16.00 40.00,28.00 24.00,20.00" fill="#CDBEDD" opacity="1" stroke="#3B2A22" stroke-width="0.7"/>
<polygon points="24.00,20.00 40.00,28.00 40.00,36.00 24.00,28.00" fill="#B79FCD" opacity="1" stroke="#3B2A22" stroke-width="0.7"/>
<polygon points="40.00,28.00 64.00,16.00 64.00,24.00 40.00,36.00" fill="#8F75A8" opacity="1" stroke="#3B2A22" stroke-width="0.7"/>
<polygon points="56.00,-12.00 64.00,-8.00 0.00,24.00 -8.00,20.00" fill="#FFFCFA" opacity="1" stroke="#3B2A22" stroke-width="0.7"/>
<polygon points="-8.00,20.00 0.00,24.00 0.00,32.00 -8.00,28.00" fill="#F3EDE7" opacity="1" stroke="#3B2A22" stroke-width="0.7"/>
<polygon points="0.00,24.00 64.00,-8.00 64.00,0.00 0.00,32.00" fill="#DDD0C6" opacity="1" stroke="#3B2A22" stroke-width="0.7"/>
<polygon points="-48.00,-8.00 0.00,16.00 -8.00,20.00 -56.00,-4.00" fill="#FFFCFA" opacity="1" stroke="#3B2A22" stroke-width="0.7"/>
<polygon points="-56.00,-4.00 -8.00,20.00 -8.00,28.00 -56.00,4.00" fill="#F3EDE7" opacity="1" stroke="#3B2A22" stroke-width="0.7"/>
<polygon points="-8.00,20.00 0.00,16.00 0.00,24.00 -8.00,28.00" fill="#DDD0C6" opacity="1" stroke="#3B2A22" stroke-width="0.7"/>
<polygon points="-51.20,27.20 -41.60,32.00 -41.60,41.60 -51.20,36.80" fill="#43334A" opacity="1" stroke="none" stroke-width="0"/>
<polygon points="-22.40,41.60 -12.80,46.40 -12.80,56.00 -22.40,51.20" fill="#43334A" opacity="1" stroke="none" stroke-width="0"/>
<polygon points="-60.80,36.00 -51.20,40.80 -51.20,46.40 -60.80,41.60" fill="#C495A0" opacity="0.7" stroke="none" stroke-width="0"/>
<polygon points="-12.80,60.00 -3.20,64.80 -3.20,70.40 -12.80,65.60" fill="#C495A0" opacity="0.7" stroke="none" stroke-width="0"/>
</svg>
